<svg width="200" height="200" viewBox="0 0 200 200" fill="none" xmlns="http://www.w3.org/2000/svg">
<circle cx="100" cy="100" r="100" fill="#5A1084"/>
<path d="M78.6289 133.735H121.019V142.213H78.6289V133.735Z" fill="#FDFAFE"/>
<path d="M87.1064 150.691H112.54V159.169H87.1064V150.691Z" fill="#FDFAFE"/>
<path d="M99.8244 40.4779C88.5819 40.4779 77.8 44.9439 69.8503 52.8936C61.9007 60.8432 57.4347 71.6252 57.4347 82.8676C57.148 89.0282 58.3282 95.1689 60.878 100.784C63.4278 106.4 67.2745 111.33 72.1015 115.169C76.3405 119.111 78.6295 121.357 78.6295 125.257H87.1075C87.1075 117.458 82.4022 113.091 77.8241 108.895C73.8622 105.861 70.7047 101.902 68.628 97.3642C66.5514 92.8266 65.619 87.8491 65.9126 82.8676C65.9126 73.8736 69.4855 65.2481 75.8451 58.8884C82.2048 52.5287 90.8304 48.9558 99.8244 48.9558C108.818 48.9558 117.444 52.5287 123.804 58.8884C130.163 65.2481 133.736 73.8736 133.736 82.8676C134.025 87.8528 133.086 92.8327 131.002 97.3705C128.918 101.908 125.752 105.865 121.782 108.895C117.247 113.134 112.541 117.373 112.541 125.257H121.019C121.019 121.357 123.266 119.111 127.547 115.126C132.371 111.294 136.216 106.371 138.766 100.763C141.316 95.1551 142.497 89.0217 142.214 82.8676C142.214 77.3009 141.118 71.7887 138.987 66.6458C136.857 61.5028 133.735 56.8298 129.798 52.8936C125.862 48.9573 121.189 45.8349 116.046 43.7046C110.903 41.5743 105.391 40.4779 99.8244 40.4779Z" fill="#FDFAFE"/>
</svg>
