<svg width="200" height="200" viewBox="0 0 200 200" fill="none" xmlns="http://www.w3.org/2000/svg">
<circle cx="100" cy="100" r="100" fill="#5A1084"/>
<path d="M91.1131 154.395L78.1853 150.644C76.8289 150.263 76.0659 148.843 76.4474 147.486L105.376 47.8359C105.758 46.4796 107.178 45.7166 108.534 46.0981L121.462 49.8493C122.818 50.2308 123.581 51.6507 123.2 53.0071L94.2709 152.657C93.8682 154.014 92.4695 154.798 91.1131 154.395ZM66.9529 130.617L76.1719 120.783C77.1468 119.744 77.0832 118.091 76.0024 117.138L56.8013 100.247L76.0024 83.3557C77.0832 82.402 77.168 80.749 76.1719 79.7105L66.9529 69.8768C65.9992 68.8596 64.3885 68.796 63.35 69.7709L32.8106 98.3817C31.7298 99.3778 31.7298 101.094 32.8106 102.091L63.35 130.722C64.3885 131.697 65.9992 131.655 66.9529 130.617ZM136.297 130.744L166.836 102.112C167.917 101.116 167.917 99.399 166.836 98.4029L136.297 69.7497C135.28 68.796 133.669 68.8384 132.694 69.8557L123.475 79.6893C122.5 80.7278 122.564 82.3808 123.645 83.3345L142.846 100.247L123.645 117.138C122.564 118.091 122.479 119.744 123.475 120.783L132.694 130.617C133.648 131.655 135.259 131.697 136.297 130.744Z" fill="#FDFAFE"/>
</svg>
