<svg width="300" height="459" viewBox="0 0 300 459" fill="none" xmlns="http://www.w3.org/2000/svg">
<path fill-rule="evenodd" clip-rule="evenodd" d="M172 220L135.745 347.227L109.293 441H90L118.109 220H172Z" fill="#191847"/>
<path fill-rule="evenodd" clip-rule="evenodd" d="M181.696 220C182.534 285.574 185.394 321.34 186.274 327.298C187.155 333.256 200.468 371.156 226.214 441H206.227C173.451 373.997 155.154 336.096 151.337 327.298C147.521 318.5 135.741 282.734 118 220H181.696Z" fill="#2F3676"/>
<path fill-rule="evenodd" clip-rule="evenodd" d="M228 459L227 438H206C191.064 448.5 167 455 167 455V459H205L218 457V459H228Z" fill="#191847"/>
<path fill-rule="evenodd" clip-rule="evenodd" d="M112 459L111 438H90C75.064 448.5 51 455 51 455V459H89L102 457V459H112Z" fill="#191847"/>
<g clip-path="url(#clip0_94_1817)">
<path fill-rule="evenodd" clip-rule="evenodd" d="M139.065 75.2443C132.589 79.1475 126.226 81.0333 123.24 80.2635C115.75 78.333 115.062 50.9351 120.857 40.1339C126.651 29.3328 156.442 24.625 157.943 46.0255C158.464 53.4529 155.346 60.0814 150.738 65.4901L159 104H135L139.065 75.2443Z" fill="#B28B67"/>
<path fill-rule="evenodd" clip-rule="evenodd" d="M137.865 48.3888C135.789 45.2978 133.796 42.94 131.203 41.5708C120.652 41.7376 119.417 39.8461 119.417 33.4708C121.121 32.2514 127.134 30.198 133.868 29.6205C137.303 28.6374 141.373 28.8223 145.293 30.4621C150.132 31.8351 154.229 34.7921 156.039 40.3282C162.588 51.6289 157.618 63.3926 150.92 67.4111C149.137 65.2988 147.581 63.2517 146.192 61.2921C147.308 60.2026 148 58.6821 148 56.9999C148 53.6862 145.314 50.9999 142 50.9999C141.756 50.9999 141.516 51.0144 141.28 51.0426C141.131 55.1856 140.517 69.2025 138.906 74.0714C137.005 79.8115 125.916 81.2209 122.049 81.2209C118.708 81.2209 118.822 78.0577 118.904 75.7907C118.915 75.4642 118.927 75.1563 118.927 74.8791C118.927 74.3 119.68 74.3015 120.531 74.3032C121.636 74.3054 122.906 74.3079 122.906 73.0399C122.906 71.6578 120.996 70.5976 119.287 69.6489C118.221 69.0571 117.232 68.5086 116.835 67.9524C115.581 66.1976 115.159 63.8309 117.05 63.8309C118.084 63.8309 119.502 64.4269 121.209 65.1439C123.785 66.2263 127.017 67.5846 130.574 67.5846C136.45 67.5846 137.847 48.626 137.865 48.3888Z" fill="#191847"/>
</g>
<g clip-path="url(#clip1_94_1817)">
<path fill-rule="evenodd" clip-rule="evenodd" d="M38.4892 200.977L70.3872 177.554L77.4382 194.984L45.8512 208.083C36.9172 218.577 31.9222 222.952 30.8642 221.207C29.9732 219.736 30.6702 218.359 31.3112 217.091C31.8122 216.102 32.2782 215.18 31.9352 214.331C31.1502 212.391 25.1492 212.596 19.4632 213.033C13.7762 213.47 15.4332 210.94 16.8042 209.691C22.6092 206.216 29.8372 203.312 38.4892 200.977ZM205.77 242.25C202.84 236.305 192.86 178.362 192.86 178.362L171.963 178.444C171.963 178.444 191.318 240.925 192.86 244.748C194.864 249.714 191.46 256.929 189.152 261.822C188.795 262.579 188.464 263.28 188.184 263.909C191.386 265.342 192.925 263.61 194.547 261.784C196.379 259.721 198.317 257.539 202.88 259.661C204.643 260.482 206.312 261.451 207.941 262.399C213.571 265.671 218.743 268.678 225.779 264.336C226.895 263.648 228.117 261.057 225.164 259.032C217.806 253.987 207.203 245.157 205.77 242.25Z" fill="#B28B67"/>
<path fill-rule="evenodd" clip-rule="evenodd" d="M133.473 90.6742L124.826 89.1911C92.7432 116.906 79.5652 170.151 40.2382 198.357L49.7042 210.09C117.928 201.642 134.838 136.697 133.473 90.6742Z" fill="#E87613"/>
<path fill-rule="evenodd" clip-rule="evenodd" d="M171.168 199.342C171.168 199.342 119.16 199.342 94.6572 199.342C91.1602 199.342 91.8192 194.294 92.3252 191.746C98.1572 162.346 120.927 130.654 120.927 88.8029L142.996 85.3422C161.251 114.701 167.563 150.847 171.168 199.342Z" fill="#DDE3E9"/>
<path fill-rule="evenodd" clip-rule="evenodd" d="M179.771 220.342C183.21 228.601 186.582 235.807 189.759 241.342H206.168C207.934 184.261 186.323 140.339 168.237 113.855C172.252 113.568 175.877 111.888 178.168 107.753C186.235 93.1983 183.321 85.1846 174.701 82.5505C169.961 81.102 165.503 82.0907 160.166 83.2742C155.799 84.2426 150.843 85.3415 144.664 85.3422C144.662 85.3422 144.66 85.3422 144.658 85.3422C144.059 85.3422 143.514 85.3823 143.019 85.4591L135.696 85.8769C135.696 85.8769 105.963 186.647 119.296 220.342H179.771Z" fill="#FF9B21"/>
<path fill-rule="evenodd" clip-rule="evenodd" d="M179.771 220.342C175.26 209.506 170.633 196.858 166.181 183.796C164.524 198.181 161.764 212.628 157.168 220.342H179.771Z" fill="black" fill-opacity="0.1"/>
</g>
<defs>
<clipPath id="clip0_94_1817">
<rect width="136" height="104" fill="white" transform="matrix(-1 0 0 1 213 0)"/>
</clipPath>
<clipPath id="clip1_94_1817">
<rect width="256" height="191" fill="white" transform="matrix(-1 0 0 1 261.168 81.3422)"/>
</clipPath>
</defs>
</svg>
