<svg width="100" height="101" viewBox="0 0 100 101" fill="none" xmlns="http://www.w3.org/2000/svg">
<path d="M0 0.266502H100V100.267H0V0.266502Z" fill="#F7DF1E"/>
<path d="M26.2941 83.8338L33.9468 79.2025C35.4232 81.8202 36.7662 84.0349 39.9876 84.0349C43.0755 84.0349 45.0224 82.827 45.0224 78.1286V46.1762H54.4198V78.2614C54.4198 87.9947 48.7144 92.4251 40.3905 92.4251C32.8728 92.4251 28.509 88.5316 26.2939 83.833" fill="black"/>
<path d="M59.5244 82.8268L67.1762 78.3965C69.1904 81.686 71.8084 84.1024 76.4398 84.1024C80.3336 84.1024 82.8166 82.1555 82.8166 79.4705C82.8166 76.2484 80.266 75.1071 75.9698 73.2282L73.6211 72.2206C66.8409 69.3347 62.3433 65.71 62.3433 58.0574C62.3433 51.0092 67.7133 45.6389 76.1044 45.6389C82.0787 45.6389 86.3747 47.72 89.4622 53.1573L82.1454 57.8559C80.5343 54.9697 78.7895 53.8287 76.1046 53.8287C73.3524 53.8287 71.607 55.574 71.607 57.8559C71.607 60.6752 73.3523 61.8167 77.3795 63.5621L79.7287 64.5689C87.7168 67.9925 92.2144 71.4827 92.2144 79.3362C92.2144 87.7946 85.569 92.4259 76.6414 92.4259C67.9151 92.4259 62.2762 88.2643 59.5244 82.8268Z" fill="black"/>
</svg>
