<svg width="28" height="28" viewBox="0 0 28 28" fill="none" xmlns="http://www.w3.org/2000/svg">
<path d="M7.12823 5.70045C6.6165 4.80589 5.47641 4.49557 4.58185 5.00735C3.68729 5.51913 3.37696 6.65917 3.88874 7.55373C3.97076 7.69716 4.07149 7.82902 4.18823 7.94586L10.2829 15.9258L11.7036 17.7162L7.53357 12.2563C7.02184 11.3617 5.88175 11.0514 4.98719 11.5632C4.09263 12.0749 3.78231 13.215 4.29409 14.1095C4.37611 14.253 4.47684 14.3848 4.59358 14.5017L8.76361 19.9616L12.0776 24.136C14.9668 27.4513 19.7483 27.2703 23.0627 24.3818C24.9676 22.7074 26.1927 20.3927 26.506 17.8759C26.7099 15.6391 26.9325 9.78963 26.9325 9.78963C26.836 8.41516 25.2755 7.3991 25.0744 8.10895L22.4881 13.2656L20.7094 11.0342L13.5934 1.93973C13.0816 1.04517 11.9415 0.734842 11.047 1.24662C10.1524 1.75841 9.84209 2.89844 10.3539 3.79301C10.4359 3.93643 10.5366 4.06829 10.6534 4.18514L12.8988 7.12513L16.2934 11.6067L9.20172 2.26305C8.69 1.36849 7.5499 1.05817 6.65534 1.56995C5.76078 2.08173 5.45046 3.22177 5.96219 4.11633C6.04421 4.25976 6.14494 4.39162 6.26168 4.50852L14.0153 14.5573" fill="#FCEA2B"/>
<path d="M7.12823 5.70045C6.6165 4.80589 5.47641 4.49557 4.58185 5.00735C3.68729 5.51913 3.37696 6.65917 3.88874 7.55373C3.97076 7.69716 4.07149 7.82902 4.18823 7.94586L10.2829 15.9258L11.7036 17.7162L7.53357 12.2563C7.02184 11.3617 5.88175 11.0514 4.98719 11.5632C4.09263 12.0749 3.78231 13.215 4.29409 14.1095C4.37611 14.253 4.47684 14.3848 4.59358 14.5017L8.76361 19.9616L12.0776 24.136C14.9668 27.4513 19.7483 27.2703 23.0627 24.3818C24.9676 22.7074 26.1927 20.3927 26.506 17.8759C26.7099 15.6391 26.9325 9.78963 26.9325 9.78963C26.836 8.41516 25.2755 7.3991 25.0744 8.10895L22.4881 13.2656L20.7094 11.0342L13.5934 1.93973C13.0816 1.04517 11.9415 0.734842 11.047 1.24662C10.1524 1.75841 9.84209 2.89844 10.3539 3.79301C10.4359 3.93644 10.5366 4.06829 10.6534 4.18514L12.8988 7.12513L16.2934 11.6067L9.20172 2.26305C8.69 1.36849 7.5499 1.05817 6.65534 1.56995C5.76078 2.08173 5.45046 3.22177 5.96219 4.11633C6.04421 4.25976 6.14494 4.39162 6.26168 4.50852L14.0153 14.5573" stroke="black" stroke-linecap="round" stroke-linejoin="round"/>
<path d="M3.43701 18.189C3.43701 19.5452 4.36027 20.6426 5.50121 20.6426" stroke="black" stroke-miterlimit="10" stroke-linecap="round" stroke-linejoin="round"/>
<path d="M1 17.9591C1 20.9164 3.0132 23.3095 5.50113 23.3095" stroke="black" stroke-miterlimit="10" stroke-linecap="round" stroke-linejoin="round"/>
<path d="M21.1882 6.75573C21.1882 5.39948 20.265 4.30209 19.124 4.30209" stroke="black" stroke-miterlimit="10" stroke-linecap="round" stroke-linejoin="round"/>
<path d="M23.6252 6.98562C23.6252 4.02829 21.612 1.63522 19.124 1.63522" stroke="black" stroke-miterlimit="10" stroke-linecap="round" stroke-linejoin="round"/>
</svg>
